<svg xmlns="http://www.w3.org/2000/svg" width="50" height="88.495" viewBox="0 0 50 88.495">
  <g id="Group_59" data-name="Group 59" transform="translate(-21033 -3003.502)">
    <g id="Group_58" data-name="Group 58" transform="translate(20401 2420.998)">
      <g id="Ellipse_4" data-name="Ellipse 4" transform="translate(632 621)" fill="#fff" stroke="#1c1c1c" stroke-width="3">
        <circle cx="25" cy="25" r="25" stroke="none"/>
        <circle cx="25" cy="25" r="23.5" fill="none"/>
      </g>
      <text id="_0wo" data-name="0wo" transform="translate(639 650.5)" fill="#1c1c1c" font-size="14" font-family="Filicudi-Solid, Filicudi" letter-spacing="0.2em"><tspan x="0" y="0">0wo</tspan></text>
      <g id="Group_41" data-name="Group 41" transform="translate(228.676 526)">
        <path id="Path_14" data-name="Path 14" d="M10.642,0c5.7,0,8.049,5.758,8.049,16.25S10.642,38,10.642,38,1.823,26.742,1.823,16.25,4.94,0,10.642,0Z" transform="translate(407 58.005)" fill="#fff" stroke="#1c1c1c" stroke-width="3"/>
        <path id="Path_15" data-name="Path 15" d="M10.642,0c5.7,0,8.049,5.758,8.049,16.25S10.642,38,10.642,38,1.823,26.742,1.823,16.25,4.94,0,10.642,0Z" transform="translate(427.177 58.005)" fill="#fff" stroke="#1c1c1c" stroke-width="3"/>
      </g>
    </g>
    <text id="_" data-name="///" transform="translate(21039 3078)" fill="#fd5bd8" font-size="6" font-family="Filicudi-Solid, Filicudi" letter-spacing="0.1em"><tspan x="0" y="0">///</tspan></text>
    <text id="_2" data-name="///" transform="translate(21066 3078)" fill="#fd5bd8" font-size="6" font-family="Filicudi-Solid, Filicudi" letter-spacing="0.1em"><tspan x="0" y="0">///</tspan></text>
  </g>
</svg>
